<svg version="1.0" viewBox="0 0 150px 57.7864px" width="150" height="57.7864" xmlns="http://www.w3.org/2000/svg" xmlns:svg="http://www.w3.org/2000/svg">
  <g transform="matrix(0.313972, 0, 0, 0.313972, -29.0592, -8.17945)">
    <g transform="translate(89.2536, 26.0263)">
        <path d="M458.7,36.5c2.2-2.967,4.08-5.833,5.65-8.6v0.2c1.47-3.2,3.63-5.117,6.50-5.75,3.93-0.70,7.08,1.083,9.45,5.35,0.47,0.767,0.72,1.65,0.75,2.65,0,0.70-0.18,1.483-0.55,2.35-3.4,6.567-8.25,12.767-14.55,18.6,3.23,1.9,6.07,4.45,8.50,7.65,0.70,0.933,1.05,1.967,1.05,3.10,0,1.20-0.35,2.267-1.05,3.20-1,1.433-2.45,2.15-4.35,2.15,4.6,6.167,7.12,13.467,7.55,21.9l0.40,6.8c0.37,7.87,1.02,15.22,1.95,22.05l0.1,0.75c0,2.47-1.42,4.07-4.25,4.8-2.77,0.53-4.73-0.43-5.90-2.9-0.50-0.8-3.30-3.47-8.40-8l-5.60-5.1-0.15,0.35c-2.13,10.70-8.23,21.52-18.3,32.45-7.23,7.8-12.17,12.77-14.8,14.9-2,1.63-4.05,1.73-6.15,0.3-1.63-1.07-2.45-2.52-2.45-4.35l0.2-1.30,1.3-4.65c1.53-5.07,2.32-9.97,2.35-14.7l-0.45-8.2c-0.5-5.80-0.75-9.83-0.75-12.1,0-1.5,0.15-3.88,0.45-7.15-12.5,6.93-27.8,9.45-45.9,7.55l-0.95-0.1-19.55-0.95c-3.13-0.03-4.88-1.63-5.25-4.80v-0.55c0-2.9,1.47-4.6,4.40-5.1l7.65-3.4c6.1-3.833,11.92-9.467,17.45-16.9,1.40-1.800,3.07-3.517,5-5.15,4.03-3.533,8.57-6.333,13.60-8.40-6.80-3.70-12.43-8.20-16.90-13.50-7.03-7.533-15.02-12.683-23.95-15.45-2.47-0.867-3.7-2.533-3.7-5l0.1-0.85c0.47-2.967,2.2-4.45,5.2-4.45l31.6,0.4c8.5-0.133,16.7,1.05,24.6,3.55-1.07-3.30-1.88-6.533-2.45-9.70-0.50-3.267-2.48-7.283-5.95-12.05-0.67-0.9333-1-1.95-1-3.05,0-1.30,0.47-2.5167,1.4-3.65,2.07-1.9000,4.30-2.1833,6.7-0.85,0,0.3667,3.3,2.2167,9.9,5.55l1.3,0.65c11.77,5.80,19.78,12.283,24.05,19.45,0.47-0.700,0.85-1.117,1.15-1.25,1.63-1.167,3.42-1.283,5.35-0.35,3.67,2,6.22,5.867,7.65,11.6zm-6.5,14.15c2.47-5.733,2.62-10.983,0.45-15.75l-4.05-5.3c0.53,6.533-0.82,10.833-4.05,12.9-1.17-8.6-4.87-15.667-11.10-21.2-3.20-2.833-8.73-6.233-16.60-10.2l-10.40-5.75c3.83,5.233,6.13,9.950,6.90,14.15,1.77,10.433,4.80,18.017,9.10,22.75-8.47-7.267-20.58-10.700-36.35-10.30l-31.8-0.45c10.07,3.133,18.83,8.75,26.3,16.85,6.3,7.300,14.07,12.617,23.3,15.95,4.3,1.567,8.05,2.5,11.25,2.8-9.90-0.567-18.80,1.733-26.70,6.9l-9.15,8.05c-6.33,8.433-12.97,14.717-19.9,18.85l-8.6,3.6,21.05,1c17.30,1.83,31.77-0.58,43.40-7.25,5.83-3.267,9.92-6.75,12.25-10.45-3.13,5.333-4.9,11.483-5.3,18.45-0.23,3.30-0.02,9.15,0.65,17.55,0.53,6.37,0.35,11.87-0.55,16.5-0.5,2.67-1.47,6.32-2.9,10.95,2.43-1.87,7.17-6.65,14.2-14.35,9.4-10.17,15.1-20.1,17.1-29.8,1.07-5.4,1.25-10.333,0.55-14.8l-1.40-5.1c2.33,7.367,5.82,13.22,10.45,17.55,9.57,8.70,14.38,13.42,14.45,14.15-0.87-6.33-1.65-16.13-2.35-29.4-0.43-7.800-2.87-14.500-7.3-20.1l-6.5-6.15c2.67-2.50,6.53-2.867,11.6-1.10-3.07-4.20-6.68-6.817-10.85-7.85l-5.45-0.35c9.7-6.10,16.97-13.967,21.8-23.60-1.5-2.767-3.08-3.550-4.75-2.35l-2.05,2.55c-4.03,6.967-8.03,12.40-12,16.30l-4.7,3.80zm-59.9,78.15l5-11.7c0.90-2.13,2.53-3.2,4.9-3.2h8.2c1.9,0,3.35,0.78,4.35,2.35,1.03,1.60,1.17,3.27,0.40,5l-21.15,49.45c-3.5,7.37-7.23,11.63-11.2,12.8-2.83,0.77-5.63,0.77-8.4,0-2.83-0.67-4.25-2.37-4.25-5.1v-5.55c-0.03-3.13,1.48-4.87,4.55-5.20l1.75-0.45c0.27-0.2,0.68-1.02,1.25-2.45l2.75-6.60-8.50-24.70-0.10,0.15c-1.27,1.03-2.72,1.38-4.35,1.05-2.30-0.50-4.22-0.18-5.75,0.95-1.37,0.83-2.22,2.5-2.55,5v21.2c0,1.47-0.57,2.77-1.7,3.9-1.30,1-2.65,1.47-4.05,1.4l-9.90-0.85c-3.27-0.37-4.90-2.13-4.90-5.30v-11.40l-0.20,0.40c-2.07,4.20-5.02,7.37-8.85,9.50-3.7,2.10-8.1,3.17-13.2,3.20-5.03-0.03-9.43-1.07-13.2-3.10-2.17-1.27-4.05-2.83-5.65-4.70v2.55c0,2.27-0.98,3.87-2.95,4.8-1.07,0.5-2.88,1-5.45,1.5-4.90,0.63-9.08-0.05-12.55-2.05-3.07-1.70-5.25-4.10-6.55-7.20-1.13,2.77-2.88,5.28-5.25,7.55-4.83,4.67-11.90,6.90-21.2,6.7-5.97-0.23-12.03-1.77-18.2-4.6-1.43-0.67-2.35-1.67-2.75-3-4.33,3.07-9.55,4.6-15.65,4.6-4.33,0-8.23-0.82-11.7-2.45-3.43-1.57-6.35-3.90-8.75-7l-2.20-3.35v13.8c-0.03,3.53-1.82,5.3-5.35,5.3h-9.65c-3.50,0-5.25-1.77-5.25-5.3v-12.7c-0.9,1.77-2.03,3.43-3.4,5-4.13,4.83-9.2,7.4-15.2,7.7-2.07,0.07-4.3-0.3-6.7-1.1v12.9c-0.03,3.53-1.78,5.3-5.25,5.3h-9.75c-3.5,0-5.25-1.77-5.25-5.3v-7.55l-1.35,0.40-6.5,0.85c-2.7,0-5.05-0.5-7.05-1.5-0.27-0.07-0.83-0.45-1.70-1.15-2.900,1.77-6.650,2.65-11.25,2.65-5.7,0-10.217-1.95-13.55-5.85l-1.20-1.70c-0.80,1.57-2.383,2.35-4.75,2.35h-9.7c-3.533,0-5.3-1.73-5.3-5.2v-26.4l-5,8.95c-0.933,1.83-2.467,2.75-4.6,2.75h-9.45c-2.067,0-3.633-0.92-4.70-2.75l-4.25-8.20v25.65c0,3.47-1.733,5.2-5.2,5.2h-9.8c-3.4667,0-5.2-1.73-5.2-5.2v-50.35l-0.95-0.35c-2.50-0.87-3.7500-2.53-3.75-5l1.3-5.6c0.7667-2.633,2.4667-3.95,5.1-3.95h18.3c2.200-0.033,3.767,0.95,4.7,2.95l10.85,21.5,5.85-10.5c-1.867-1.17-2.8-2.67-2.8-4.5l0.15-1.15,1.05-4.25c0.7-2.7,2.4-4.05,5.1-4.05h18.3c3.533,0,5.3,1.767,5.3,5.30v43c0.9-1.23,2-2.40,3.3-3.50,0.2-0.23,0.883-0.67,2.05-1.30-1.067-0.13-1.917-0.38-2.55-0.75-1.733-1-2.583-2.48-2.55-4.45v-7.35c-0.033-2.4,1.133-4.03,3.50-4.9,5.233-2,10.517-2.98,15.85-2.95,3.533,0,6.73,0.50,9.6,1.50,3.17,1.10,5.75,2.93,7.75,5.50l0.30,0.45v-0.35l0.25-1.35,1.05-4.25c0.70-2.63,2.40-3.95,5.10-3.95h13.40c1.43,0,2.65,0.5,3.65,1.5,2.67-1.3,5.43-1.95,8.3-1.95,5.87,0.07,10.93,2.55,15.2,7.45,1.37,1.57,2.5,3.25,3.4,5.05v-8.85l-1.05-0.35c-2.50-0.87-3.75-2.53-3.75-5l1.3-5.50c0.7-2.63,2.4-3.95,5.1-3.95h13.3c3.53,0,5.32,1.73,5.35,5.2v12.55c1.30-2.30,2.97-4.38,5-6.25,4.30-3.93,9.68-5.88,16.15-5.85,7.97-0.03,13.83,2.52,17.6,7.65l-0.25-3.4c0-5.9,1.98-10.8,5.95-14.7,4.53-4.333,11-6.383,19.4-6.15,5.37,0.067,10.72,1.233,16.05,3.50,2.13,0.90,3.20,2.53,3.20,4.90v9.15v0.25l1.15-0.15v-3.2c0-2.77,1.35-4.47,4.05-5.1l9.70-2.35c1.77-0.37,3.28-0.05,4.55,0.95,1.27,1.13,1.92,2.52,1.95,4.15v5.55h2.85c3.53,0,5.32,1.73,5.35,5.2v2.2c1.67-2.13,3.72-3.9,6.15-5.3,3.77-2.13,8.17-3.18,13.2-3.15,5.17-0.03,9.57,1.02,13.2,3.15,2.3,1.27,4.25,2.88,5.85,4.85,0.87-1.80,2.43-2.70,4.70-2.70h13.70c1.20,0,2.30,0.38,3.30,1.15,3.47-1.77,7.33-2.53,11.60-2.3,1-1,2.28-1.5,3.85-1.5h11.05c2.57,0,4.23,1.2,5,3.6l3.65,11.3zm-23.75-5.25l-0.95-2.75-0.1-0.2c-6.33-0.03-10.88,2.33-13.65,7.1v-5.95h-13.70l-1.10,4.25,4.90,1.6v33.35l9.90,0.85v-21.75c0.87-5.60,3.57-9.07,8.10-10.40l6.60-0.20v-5.90zm4.05-4.45l13.5,39.15-3.5,8.55c-1.5,3.6-3.88,5.62-7.15,6.05v5.55l5.85,0.1c2.47-0.73,5.1-4.07,7.9-10l21.2-49.4h-8.2l-10.55,24.6-8-24.6h-11.05zm-36.5,17.9c0-3.83-0.78-7.42-2.35-10.75-1.50-3.07-3.73-5.48-6.70-7.25-2.83-1.73-6.38-2.58-10.65-2.55-4.13-0.03-7.68,0.82-10.65,2.55-2.97,1.77-5.20,4.18-6.70,7.25-1.50,3.17-2.25,6.75-2.25,10.75,0,3.97,0.78,7.52,2.35,10.65,1.50,3.23,3.73,5.63,6.70,7.20,2.90,1.70,6.42,2.55,10.55,2.55,4.1,0,7.65-0.85,10.65-2.55,2.83-1.57,5.07-3.97,6.70-7.20,1.57-3.37,2.35-6.92,2.35-10.65zm-94.95-27.9c1.83-1.63,4.43-2.35,7.80-2.15,4.60,0.13,9.03,1.88,13.30,5.25v-9.15c-4.77-2-9.53-3.067-14.30-3.20-6.80-0.167-11.97,1.43-15.50,4.80-2.93,2.90-4.40,6.52-4.40,10.85,0,3.47,1,6.58,3,9.35,1.97,2.70,5.80,5.72,11.50,9.05l4.05,2.35c3.9,2.27,6.32,4.10,7.25,5.50,0.97,1.43,1.45,3.15,1.45,5.15,0,2.4-0.92,4.52-2.75,6.35-2.07,2-5.40,2.90-10,2.70-5.77-0.30-10.73-2.40-14.90-6.30v9.70c5.53,2.53,10.92,3.92,16.15,4.15,7.73,0.13,13.52-1.62,17.35-5.25,3.53-3.53,5.32-7.68,5.35-12.45,0-3.47-0.88-6.55-2.65-9.25-1.80-2.77-5.92-6-12.35-9.70l-4.25-2.55c-3.87-2.13-6.28-3.90-7.25-5.3-1-1.43-1.5-2.92-1.5-4.45,0-2.13,0.88-3.95,2.65-5.45zm-35.65,7.45c-5.10,0-9.28,1.48-12.55,4.45-4.60,4.20-6.90,9.95-6.90,17.25-0.03,5.90,1.48,10.83,4.55,14.80,1.97,2.47,4.23,4.23,6.8,5.30,2.9,1.33,6.1,2.02,9.6,2.05,5.60,0,10.03-1.42,13.3-4.25v-7.25l-3.5,2.55c-3.63,2.20-7.28,2.88-10.95,2.05-1.80-0.43-3.33-1.22-4.60-2.35-2.07-1.93-3.45-4.32-4.15-7.15l3.4-0.1c5.23-0.2,10.1-1.58,14.6-4.15l2.75-2.15c0.93-0.87,1.72-1.97,2.35-3.3,0.63-1.5,0.95-3.17,0.95-5,0-2.33-0.57-4.42-1.70-6.25-2.63-4.33-7.28-6.50-13.95-6.50zm5.75,14.90c-0.37,1.47-1.07,2.63-2.10,3.50l-0.15,0.10c-2.83,2.43-7.08,3.47-12.75,3.10l-0.10-3.40c0.33-3.40,1.08-5.98,2.25-7.75,1.27-1.80,2.78-2.90,4.55-3.3,2.70-0.67,4.90-0.13,6.60,1.6,1.70,1.6,2.27,3.65,1.70,6.15zm-5.20-1.15l0.10-0.45c0-0.43-0.10-0.72-0.30-0.85-0.37-0.37-0.93-0.43-1.70-0.2-0.43,0-0.90,0.38-1.40,1.15-0.57,0.93-0.88,1.78-0.95,2.55,2.03-0.5,3.3-1,3.8-1.5,0.30-0.13,0.45-0.37,0.45-0.7zm11.70,13.9c-3.20,1.93-6.85,3.28-10.95,4.05l0.3,0.10c2.13,0.57,4.43,0.08,6.9-1.45l3.1-2.15c1.83-1.33,3.68-1.47,5.55-0.40,0.70,0.30,1.28,0.70,1.75,1.20l1.2-0.70c2.07-0.93,3.95-0.62,5.65,0.95,3.13,2.9,6.97,4.53,11.50,4.9,3.07,0.13,5.13-0.28,6.20-1.25,0.77-0.73,1.15-1.58,1.15-2.55,0-0.87-0.22-1.58-0.65-2.15,0-0.57-1.83-1.88-5.50-3.95l-4.05-2.35c-6.33-3.70-10.7-7.17-13.1-10.40l-0.55-0.80,0.10,2.05c0,2.63-0.42,4.98-1.25,7.05-0.87,2.03-2.08,3.77-3.65,5.20l-3.70,2.65zm-53.10-29.15l4.70,1.50v50.15h9.65v-55.9h-13.3l-1.05,4.25zm119-8.30l-9.80,2.35v8.4h-5v7.45h5v13.75c0,5.73,0.10,9.32,0.30,10.75,0.57,3.47,2.27,6.02,5.10,7.65,2.50,1.4,5.52,1.87,9.05,1.4l4.05-1.1v-6.15l-2.85,0.40-2.7-0.40c-0.77-0.30-1.37-0.70-1.8-1.20-0.83-0.83-1.28-2.32-1.35-4.45v-20.65h8.05v-7.45h-8.05v-10.75zm7.85,30.25c0-2.37,0.23-4.6,0.7-6.7h-0.5h-2.85v15.1l0.10,0.95h0.75l1.25-0.20,1.95,0.05c-0.93-2.87-1.4-5.93-1.4-9.2zm29.35,0c0-3.2-0.57-5.87-1.70-8-0.70-1.13-1.62-1.7-2.75-1.7-1.13,0-2.02,0.57-2.65,1.7-1.17,2-1.73,4.67-1.70,8,0,3.3,0.53,5.95,1.60,7.95h0.10c0.57,1.07,1.45,1.60,2.65,1.60,1.13,0,2.05-0.53,2.75-1.60,1.13-2.13,1.70-4.78,1.70-7.95zm-14.15,0c0-4.2,0.82-7.72,2.45-10.55,1.63-2.93,4.05-4.38,7.25-4.35,3.2-0.03,5.65,1.42,7.35,4.35,1.53,2.70,2.32,6.22,2.35,10.55-0.03,4.3-0.82,7.8-2.35,10.5-1.70,2.90-4.15,4.37-7.35,4.4-3.2-0.03-5.62-1.50-7.25-4.4-1.63-2.83-2.45-6.33-2.45-10.5zm-43.1-12.05v-7.45v-0.2c-1.73,0.57-3.32,0.25-4.75-0.95-3.13-2.63-6.52-4.02-10.15-4.15-1.9-0.1-3.28,0.18-4.15,0.85-0.57,0.50-0.85,1-0.85,1.50,0,0.40,0.22,0.88,0.65,1.45l5.45,3.75,4.35,2.55c7.30,4.17,12.02,8,14.15,11.5l0.3,0.5v-4.15c-3.33-0.13-5-1.87-5-5.20zm-211.75-18.85h0.10l4.90,1.6-13.55,24.6-15.3-30.45h-18.3l-1.05,4.25,4.55,1.5v54.2h9.8v-46.75l14.15,26.70h9.45l14.9-26.80v46.85h9.7v-59.95h-18.3l-1.05,4.25zm81.70,22.35v-5.95h-13.40l-1.05,4.25,4.7,1.50v50.25h9.75v-22.15c3.53,3.53,7.43,5.20,11.70,5,4.53-0.20,8.40-2.15,11.60-5.85,3.20-3.77,4.80-8.35,4.80-13.75,0-5.40-1.60-10-4.80-13.80-3.10-3.83-6.92-5.82-11.45-5.95-4.2-0.03-7.78,1.63-10.75,5l-1.10,1.45zm9.40,5.75c-2.57,0-3.92,2.6-4.05,7.8-0.03,2.10,0.42,3.98,1.35,5.65,0.87,1.40,1.73,2.10,2.60,2.10,0.90,0,1.75-0.70,2.55-2.10,0.9-1.57,1.35-3.45,1.35-5.65,0.07-2.87-0.67-5.18-2.20-6.95-0.80-0.57-1.33-0.85-1.60-0.85zm-6.50-1.35c1.77-2.57,3.93-3.85,6.50-3.85,2.53,0,4.70,1.28,6.50,3.85,1.77,2.53,2.65,5.58,2.65,9.15,0,3.60-0.88,6.68-2.65,9.25-1.87,2.47-4.07,3.70-6.60,3.70-2.57,0-4.73-1.27-6.50-3.80-1.80-2.57-2.70-5.62-2.70-9.15,0-3.63,0.93-6.68,2.80-9.15zm-54.50,1.80c4.167-2.37,8.25-3.53,12.25-3.50,2.2-0.03,3.967,0.38,5.3,1.25,1.57,1,2.28,2.6,2.15,4.8v3.95h-3.10c-7.100,0-12.200,1.35-15.30,4.05-3.133,2.53-4.70,5.65-4.70,9.35,0,3.40,0.883,6.13,2.65,8.20,2.2,2.60,5.367,3.92,9.5,3.95,4.667,0.13,8.25-0.97,10.75-3.3l1.05-1.2c0.83,1.77,1.93,2.93,3.3,3.5,1.27,0.63,2.9,0.97,4.9,1l5.4-0.75v-5.55l-1.5-0.1c-1.2-0.37-2.05-0.97-2.55-1.8-0.50-0.73-0.73-1.77-0.70-3.1v-18.1c-0.03-3.47-0.72-5.98-2.05-7.55-1.27-1.63-3.07-2.92-5.4-3.85-2.13-0.7-4.733-1.05-7.8-1.05-4.767,0-9.483,0.82-14.15,2.45v7.35zm36.60-2.55l-1.05-0.35c-0.73-0.23-1.33-0.53-1.8-0.90,0.63,1.93,0.95,4.15,0.95,6.65,0,10.13-0.07,16.10-0.20,17.9l2.10,0.55v-23.85zm-16.90,14.9c0.70,6.87-1.12,11.05-5.45,12.55l-2.1,0.30c-1.433,0-2.75-0.38-3.95-1.15-0.933-0.73-1.567-1.65-1.90-2.75-0.433-1.23-0.483-2.48-0.15-3.75,0.567-2.13,2.133-3.7,4.7-4.7,2.567-1,5.517-1.17,8.85-0.5zm14.70,8.95l-0.35,2.10c0.37-0.70,0.55-1.37,0.55-2l-0.20-0.10zm-23.20-1.85l0.10,0.45,0.85,0.30,0.4-0.10c0.5-0.07,1-0.85,1.5-2.35-1.767,0.5-2.683,0.93-2.75,1.3l-0.10,0.4z" fill="#FFF" stroke-linecap="round" stroke-linejoin="round"/>
        <path d="M452.65,34.9c2.17,4.767,2.02,10.017-0.45,15.75l4.7-3.80c3.97-3.90,7.97-9.333,12-16.30l2.05-2.55c1.67-1.200,3.25-0.417,4.75,2.35-4.83,9.633-12.1,17.50-21.8,23.60l5.45,0.35c4.17,1.033,7.78,3.65,10.85,7.85-5.07-1.767-8.93-1.40-11.6,1.10l6.5,6.15c4.43,5.6,6.87,12.3,7.3,20.1,0.7,13.27,1.48,23.07,2.35,29.4-0.07-0.73-4.88-5.45-14.45-14.15-4.63-4.33-8.12-10.183-10.45-17.55l1.40,5.1c0.70,4.467,0.52,9.40-0.55,14.8-2,9.7-7.7,19.63-17.1,29.8-7.03,7.70-11.77,12.48-14.2,14.35,1.43-4.63,2.4-8.28,2.9-10.95,0.90-4.63,1.08-10.13,0.55-16.5-0.67-8.4-0.88-14.25-0.65-17.55,0.4-6.967,2.17-13.117,5.3-18.45-2.33,3.7-6.42,7.183-12.25,10.45-11.63,6.67-26.10,9.08-43.40,7.25l-21.05-1,8.6-3.6c6.93-4.133,13.57-10.417,19.9-18.85,1.73-2.294,4.40-4.243,7.70-6.600,7.90-5.167,18.25-8.917,28.15-8.350-3.20-0.3-6.95-1.233-11.25-2.8-9.23-3.333-17-8.650-23.3-15.95-7.47-8.10-16.23-13.717-26.3-16.85l31.8,0.45c15.77-0.400,27.88,3.033,36.35,10.30-4.30-4.733-7.33-12.317-9.10-22.75-0.77-4.200-3.07-8.917-6.90-14.15l10.40,5.75c7.87,3.967,13.40,7.367,16.60,10.2,6.23,5.533,9.93,12.6,11.10,21.2,3.23-2.067,4.58-6.367,4.05-12.9l4.05,5.3z" fill="#c1170c" stroke-linecap="round" stroke-linejoin="round"/>
        <path d="M368.55,120.63v2.92v5.90l-6.60,0.20c-4.53,1.33-7.23,4.80-8.10,10.40v21.75l-9.90-0.13v-34.07l-4.90-1.6,1.10-4.25h13.70v5.95c2.77-4.77,7.32-7.13,13.65-7.1l1.05,0.03zm17.55,37.62l-13.5-39.15h11.05l8,24.6,10.55-24.6h8.2l-21.2,49.4c-2.8,5.93-5.43,9.27-7.9,10l-5.85-0.1v-5.55c3.27-0.43,5.65-2.45,7.15-6.05l3.5-8.55zm-52.35-32c1.57,3.33,2.35,6.92,2.35,10.75,0,3.73-0.78,7.28-2.35,10.65-1.63,3.23-3.87,5.63-6.70,7.20-3,1.70-6.55,2.55-10.65,2.55-4.13,0-7.65-0.85-10.55-2.55-2.97-1.57-5.20-3.97-6.70-7.20-1.57-3.13-2.35-6.68-2.35-10.65,0-4,0.75-7.58,2.25-10.75,1.50-3.07,3.73-5.48,6.70-7.25,2.97-1.73,6.52-2.58,10.65-2.55,4.27-0.03,7.82,0.82,10.65,2.55,2.97,1.77,5.20,4.18,6.70,7.25zm-84.80-19.30c-3.37-0.20-5.97,0.52-7.80,2.15-1.77,1.5-2.65,3.32-2.65,5.45,0,1.53,0.5,3.02,1.5,4.45,0.97,1.4,3.38,3.17,7.25,5.3l4.25,2.55c6.43,3.70,10.55,6.93,12.35,9.70,1.77,2.70,2.65,5.78,2.65,9.25-0.03,4.77-1.82,8.92-5.35,12.45-3.83,3.63-9.62,5.38-17.35,5.25-5.23-0.23-10.62-1.62-16.15-4.15v-9.70c4.17,3.90,9.13,6,14.90,6.30,4.60,0.20,7.93-0.70,10-2.70,1.83-1.83,2.75-3.95,2.75-6.35,0-2-0.48-3.72-1.45-5.15-0.93-1.40-3.35-3.23-7.25-5.50l-4.05-2.35c-5.70-3.33-9.53-6.35-11.50-9.05-2-2.77-3-5.88-3-9.35,0-4.33,1.47-7.95,4.40-10.85,3.53-3.37,8.70-4.967,15.50-4.80,4.77,0.133,9.53,1.20,14.30,3.20v9.15c-4.27-3.37-8.70-5.12-13.30-5.25zm-56,14.05c3.27-2.97,7.45-4.45,12.55-4.45,6.67,0,11.32,2.17,13.95,6.50,1.13,1.83,1.70,3.92,1.70,6.25,0,1.83-0.32,3.5-0.95,5-0.63,1.33-1.42,2.43-2.35,3.3l-2.75,2.15c-4.5,2.57-9.37,3.95-14.6,4.15l-3.4,0.1c0.7,2.83,2.08,5.22,4.15,7.15,1.27,1.13,2.80,1.92,4.60,2.35,3.67,0.83,7.32,0.15,10.95-2.05l3.5-2.55v7.25c-3.27,2.83-7.70,4.25-13.3,4.25-3.5-0.03-6.7-0.72-9.6-2.05-2.57-1.07-4.83-2.83-6.8-5.30-3.07-3.97-4.58-8.90-4.55-14.80,0-7.30,2.30-13.05,6.90-17.25zm16.20,13.95c1.03-0.87,1.73-2.03,2.10-3.50,0.57-2.50,0-4.55-1.70-6.15-1.70-1.73-3.90-2.27-6.60-1.6-1.77,0.4-3.28,1.5-4.55,3.3-1.17,1.77-1.92,4.35-2.25,7.75l0.10,3.40c5.67,0.37,9.92-0.67,12.75-3.10l0.15-0.10zm-39.80-18.40l-4.70-1.50,1.05-4.25h13.3v55.9h-9.65v-50.15zm104.50-7.45l9.80-2.35v10.75h8.05v7.45h-8.05v20.65c0.07,2.13,0.52,3.62,1.35,4.45,0.43,0.50,1.03,0.90,1.8,1.20l2.7,0.40,2.85-0.40v6.15l-4.05,1.1c-3.53,0.47-6.55,0-9.05-1.4-2.83-1.63-4.53-4.18-5.10-7.65-0.20-1.43-0.30-5.02-0.30-10.75v-13.75h-5v-7.45h5v-8.4zm35.30,17.35c-1.63,2.83-2.45,6.35-2.45,10.55,0,4.17,0.82,7.67,2.45,10.5,1.63,2.90,4.05,4.37,7.25,4.4,3.2-0.03,5.65-1.50,7.35-4.4,1.53-2.7,2.32-6.2,2.35-10.5-0.03-4.33-0.82-7.85-2.35-10.55-1.70-2.93-4.15-4.38-7.35-4.35-3.2-0.03-5.62,1.42-7.25,4.35zm-257.20-20.35h-0.10l1.05-4.25h18.3v59.95h-9.7v-46.85l-14.9,26.80h-9.45l-14.15-26.70v46.75h-9.8v-54.2l-4.55-1.5,1.05-4.25h18.3l15.3,30.45,13.55-24.6-4.90-1.6zm81.60,16.4v5.95l1.10-1.45c2.97-3.37,6.55-5.03,10.75-5,4.53,0.13,8.35,2.12,11.45,5.95,3.20,3.80,4.80,8.40,4.80,13.80,0,5.40-1.60,9.98-4.80,13.75-3.20,3.7-7.07,5.65-11.60,5.85-4.27,0.20-8.17-1.47-11.70-5v22.15h-9.75v-50.25l-4.7-1.50,1.05-4.25h13.40zm9.40,6.5c-2.57,0-4.73,1.28-6.50,3.85-1.87,2.47-2.80,5.52-2.80,9.15,0,3.53,0.90,6.58,2.70,9.15,1.77,2.53,3.93,3.80,6.50,3.80,2.53,0,4.73-1.23,6.60-3.70,1.77-2.57,2.65-5.65,2.65-9.25,0-3.57-0.88-6.62-2.65-9.15-1.80-2.57-3.97-3.85-6.50-3.85zm-48.75,2.15c-4-0.03-8.083,1.13-12.25,3.50v-7.35c4.667-1.63,9.383-2.45,14.15-2.45,3.067,0,5.67,0.35,7.8,1.05,2.33,0.93,4.13,2.22,5.4,3.85,1.33,1.57,2.02,4.08,2.05,7.55v18.1c-0.03,1.33,0.20,2.37,0.70,3.1,0.50,0.83,1.35,1.43,2.55,1.8l1.5,0.1v5.55l-5.4,0.75c-2-0.03-3.63-0.37-4.9-1-1.37-0.57-2.47-1.73-3.3-3.5l-1.05,1.2c-2.50,2.33-6.083,3.43-10.75,3.3-4.133-0.03-7.3-1.35-9.5-3.95-1.767-2.07-2.65-4.80-2.65-8.20,0-3.70,1.567-6.82,4.70-9.35,3.10-2.7,8.20-4.05,15.30-4.05h3.10v-3.95c0.13-2.2-0.58-3.8-2.15-4.8-1.333-0.87-3.100-1.28-5.3-1.25zm2,28.40c4.33-1.50,6.15-5.68,5.45-12.55-3.333-0.67-6.283-0.5-8.85,0.5-2.567,1-4.133,2.57-4.7,4.7-0.333,1.27-0.283,2.52,0.15,3.75,0.333,1.10,0.967,2.02,1.90,2.75,1.20,0.77,2.517,1.15,3.95,1.15l2.1-0.30z" fill="#020000" stroke-linecap="round" stroke-linejoin="round"/>
    </g>
  </g>
</svg>